<?xml version="1.0" standalone="no"?>
<!DOCTYPE svg PUBLIC "-//W3C//DTD SVG 20010904//EN"
 "http://www.w3.org/TR/2001/REC-SVG-20010904/DTD/svg10.dtd">
<svg version="1.0" xmlns="http://www.w3.org/2000/svg"
 width="256.000000pt" height="256.000000pt" viewBox="0 0 256.000000 256.000000"
 preserveAspectRatio="xMidYMid meet">
<metadata>
Created by potrace 1.11, written by Peter Selinger 2001-2013
</metadata>
<g transform="translate(0.000000,256.000000) scale(0.100000,-0.100000)"
fill="#000000" stroke="none">
<path d="M565 2426 c-278 -61 -483 -265 -549 -548 -15 -61 -16 -274 -3 -323
49 -182 165 -329 462 -584 93 -80 175 -150 181 -156 6 -5 44 -39 84 -75 226
-200 375 -388 486 -613 27 -53 51 -97 54 -97 3 0 29 48 59 107 132 266 278
433 651 748 216 183 222 188 303 269 123 123 194 226 238 347 21 57 23 81 23
214 0 135 -3 158 -27 230 -38 114 -90 198 -182 290 -66 67 -97 89 -175 127
-124 60 -206 78 -340 74 -207 -7 -394 -102 -523 -266 l-27 -35 -27 35 c-81
106 -203 190 -337 235 -97 32 -256 42 -351 21z m296 -169 c80 -26 151 -70 219
-137 69 -68 104 -130 165 -287 16 -40 31 -73 35 -73 3 0 28 54 54 120 55 139
110 219 193 285 113 89 286 132 428 106 74 -13 206 -79 262 -130 77 -71 145
-187 171 -291 3 -14 6 -79 6 -145 0 -136 -12 -178 -80 -281 -51 -79 -208 -235
-374 -373 -342 -284 -506 -450 -617 -622 -21 -33 -40 -59 -43 -59 -3 0 -22 26
-43 59 -56 87 -182 234 -288 336 -102 98 -152 142 -365 323 -130 111 -229 206
-304 292 -16 19 -49 73 -72 119 -40 81 -42 89 -45 190 -2 112 4 156 37 244 58
154 199 281 365 328 72 20 226 18 296 -4z"/>
</g>
</svg>
